<svg width="50" height="50" viewBox="0 0 50 50" fill="none" xmlns="http://www.w3.org/2000/svg">
<path d="M39.5834 8.33325H10.4167C8.75915 8.33325 7.16943 8.99173 5.99733 10.1638C4.82523 11.3359 4.16675 12.9256 4.16675 14.5833V35.4166C4.16675 37.0742 4.82523 38.6639 5.99733 39.836C7.16943 41.0081 8.75915 41.6666 10.4167 41.6666H39.5834C41.241 41.6666 42.8307 41.0081 44.0028 39.836C45.1749 38.6639 45.8334 37.0742 45.8334 35.4166V14.5833C45.8334 12.9256 45.1749 11.3359 44.0028 10.1638C42.8307 8.99173 41.241 8.33325 39.5834 8.33325ZM38.7293 12.4999L26.4792 24.7499C26.2856 24.9452 26.0552 25.1002 25.8013 25.2059C25.5474 25.3117 25.2751 25.3662 25.0001 25.3662C24.7251 25.3662 24.4528 25.3117 24.1989 25.2059C23.945 25.1002 23.7146 24.9452 23.5209 24.7499L11.2709 12.4999H38.7293ZM41.6668 35.4166C41.6668 35.9691 41.4473 36.499 41.0566 36.8897C40.6659 37.2804 40.136 37.4999 39.5834 37.4999H10.4167C9.86421 37.4999 9.33431 37.2804 8.94361 36.8897C8.55291 36.499 8.33342 35.9691 8.33342 35.4166V15.4374L20.5834 27.6874C21.7553 28.8578 23.3438 29.5152 25.0001 29.5152C26.6563 29.5152 28.2449 28.8578 29.4167 27.6874L41.6668 15.4374V35.4166Z" fill="white"/>
</svg>
