<svg width="50" height="50" viewBox="0 0 50 50" fill="none" xmlns="http://www.w3.org/2000/svg">
<path d="M43.5418 4.16675H6.45841C5.85063 4.16675 5.26773 4.40819 4.83796 4.83796C4.40819 5.26773 4.16675 5.85063 4.16675 6.45841V43.5418C4.16675 43.8427 4.22602 44.1407 4.34119 44.4187C4.45636 44.6968 4.62516 44.9494 4.83796 45.1622C5.05076 45.375 5.30339 45.5438 5.58143 45.659C5.85947 45.7741 6.15747 45.8334 6.45841 45.8334H26.4167V29.6876H21.0001V23.4376H26.4167V18.7501C26.3045 17.6496 26.4345 16.5378 26.7974 15.4929C27.1603 14.4479 27.7475 13.495 28.5177 12.7009C29.2879 11.9069 30.2225 11.291 31.256 10.8964C32.2894 10.5018 33.3967 10.3381 34.5001 10.4167C36.1216 10.4068 37.7423 10.4902 39.3542 10.6667V16.2917H36.0417C33.4167 16.2917 32.9167 17.5417 32.9167 19.3542V23.3751H39.1667L38.3543 29.6251H32.9167V45.8334H43.5418C43.8427 45.8334 44.1407 45.7741 44.4187 45.659C44.6968 45.5438 44.9494 45.375 45.1622 45.1622C45.375 44.9494 45.5438 44.6968 45.659 44.4187C45.7741 44.1407 45.8334 43.8427 45.8334 43.5418V6.45841C45.8334 6.15747 45.7741 5.85947 45.659 5.58143C45.5438 5.30339 45.375 5.05076 45.1622 4.83796C44.9494 4.62516 44.6968 4.45636 44.4187 4.34119C44.1407 4.22602 43.8427 4.16675 43.5418 4.16675Z" fill="white"/>
</svg>
