<svg width="602" height="139" viewBox="0 0 602 139" fill="none" xmlns="http://www.w3.org/2000/svg">
<g filter="url(#filter0_d_1_11)">
<path d="M49.66 121V72H60.16V121H49.66ZM54 101.96V92.93H84.52V101.96H54ZM54.56 81.45V72H87.46V81.45H54.56ZM104.212 121V111.69H115.132V81.31H104.212V72H136.552V81.31H125.632V111.69H136.552V121H104.212ZM168.277 121V81.45H151.197V72H196.207V81.45H178.777V121H168.277ZM228.215 121L225.415 118L223.255 116.04L216.335 109.52C215.428 108.667 214.561 107.813 213.735 106.96C212.908 106.107 212.188 105.267 211.575 104.44C210.961 103.613 210.468 102.813 210.095 102.04C209.748 101.24 209.575 100.453 209.575 99.68C209.575 98.4267 209.961 97.2533 210.735 96.16C211.508 95.04 212.615 94.1333 214.055 93.44C215.495 92.72 217.201 92.36 219.175 92.36C220.828 92.36 222.335 92.6 223.695 93.08C225.081 93.56 226.255 94.2267 227.215 95.08C228.201 95.9067 228.961 96.84 229.495 97.88L225.175 101.04C224.455 99.7333 223.588 98.8 222.575 98.24C221.561 97.6533 220.495 97.36 219.375 97.36C218.708 97.36 218.095 97.4533 217.535 97.64C217.001 97.8 216.575 98.0667 216.255 98.44C215.961 98.8133 215.815 99.2667 215.815 99.8C215.815 100.253 215.975 100.773 216.295 101.36C216.641 101.947 217.081 102.547 217.615 103.16C218.148 103.773 218.708 104.36 219.295 104.92C219.881 105.453 220.415 105.933 220.895 106.36L227.455 112.44L229.455 114.4L235.855 121H228.215ZM217.095 121.52C214.508 121.52 212.308 121.107 210.495 120.28C208.708 119.453 207.335 118.36 206.375 117C205.441 115.613 204.975 114.12 204.975 112.52C204.975 110.68 205.575 108.987 206.775 107.44C207.975 105.867 209.815 104.613 212.295 103.68L215.895 107.2C214.161 107.627 212.908 108.253 212.135 109.08C211.388 109.907 211.015 110.853 211.015 111.92C211.015 112.773 211.228 113.547 211.655 114.24C212.108 114.907 212.815 115.44 213.775 115.84C214.735 116.24 215.988 116.44 217.535 116.44C218.548 116.44 219.588 116.267 220.655 115.92C221.721 115.547 222.708 115 223.615 114.28C224.521 113.533 225.255 112.6 225.815 111.48C226.375 110.333 226.681 108.96 226.735 107.36H232.415C232.308 109.2 231.935 110.88 231.295 112.4C230.681 113.893 229.868 115.213 228.855 116.36C227.868 117.507 226.735 118.467 225.455 119.24C224.175 119.987 222.828 120.56 221.415 120.96C220.001 121.333 218.561 121.52 217.095 121.52ZM266.7 121.7C263.246 121.7 260.073 121.35 257.18 120.65C254.286 119.903 251.673 118.853 249.34 117.5C247.006 116.147 244.93 114.513 243.11 112.6L248.85 104.55C251.883 107.583 254.916 109.707 257.95 110.92C260.983 112.133 264.11 112.74 267.33 112.74C268.963 112.74 270.55 112.53 272.09 112.11C273.676 111.69 274.96 111.083 275.94 110.29C276.966 109.45 277.48 108.377 277.48 107.07C277.48 106.23 277.223 105.507 276.71 104.9C276.196 104.293 275.52 103.78 274.68 103.36C273.84 102.94 272.86 102.59 271.74 102.31C270.62 101.983 269.43 101.727 268.17 101.54C266.956 101.307 265.696 101.12 264.39 100.98C261.45 100.513 258.813 99.8833 256.48 99.09C254.193 98.2967 252.233 97.2933 250.6 96.08C248.966 94.82 247.73 93.3733 246.89 91.74C246.096 90.06 245.7 88.1467 245.7 86C245.7 83.7133 246.236 81.6367 247.31 79.77C248.383 77.9033 249.876 76.3167 251.79 75.01C253.703 73.7033 255.92 72.7233 258.44 72.07C261.006 71.37 263.76 71.02 266.7 71.02C269.92 71.02 272.79 71.3467 275.31 72C277.83 72.6533 280.07 73.5867 282.03 74.8C283.99 75.9667 285.6 77.3667 286.86 79L280.84 85.93C279.673 84.7167 278.296 83.6667 276.71 82.78C275.17 81.8933 273.536 81.2167 271.81 80.75C270.083 80.2833 268.333 80.05 266.56 80.05C264.6 80.05 262.873 80.26 261.38 80.68C259.933 81.0533 258.766 81.6367 257.88 82.43C257.04 83.1767 256.62 84.1333 256.62 85.3C256.62 86.2333 256.946 87.05 257.6 87.75C258.253 88.45 259.116 89.0333 260.19 89.5C261.263 89.92 262.5 90.2933 263.9 90.62C265.3 90.9 266.77 91.1567 268.31 91.39C271.016 91.81 273.583 92.3467 276.01 93C278.436 93.6067 280.583 94.4467 282.45 95.52C284.316 96.5467 285.763 97.9 286.79 99.58C287.816 101.213 288.33 103.267 288.33 105.74C288.33 109.053 287.396 111.9 285.53 114.28C283.71 116.66 281.19 118.503 277.97 119.81C274.75 121.07 270.993 121.7 266.7 121.7ZM303.986 121V72H329.606C332.64 72 335.393 72.7 337.866 74.1C340.34 75.4533 342.3 77.32 343.746 79.7C345.24 82.08 345.986 84.7633 345.986 87.75C345.986 90.8767 345.216 93.6767 343.676 96.15C342.183 98.6233 340.13 100.607 337.516 102.1C334.903 103.547 332.01 104.27 328.836 104.27H314.486V121H303.986ZM314.346 94.82H327.366C328.766 94.82 330.05 94.5167 331.216 93.91C332.383 93.3033 333.293 92.4633 333.946 91.39C334.646 90.3167 334.996 89.1267 334.996 87.82C334.996 86.56 334.646 85.4633 333.946 84.53C333.293 83.55 332.383 82.8033 331.216 82.29C330.05 81.73 328.766 81.45 327.366 81.45H314.346V94.82ZM386.868 121.7C382.808 121.7 379.075 121.07 375.668 119.81C372.262 118.503 369.275 116.707 366.708 114.42C364.188 112.133 362.252 109.45 360.898 106.37C359.545 103.29 358.868 99.9533 358.868 96.36C358.868 92.7667 359.545 89.43 360.898 86.35C362.298 83.27 364.258 80.5867 366.778 78.3C369.298 76.0133 372.262 74.24 375.668 72.98C379.075 71.6733 382.808 71.02 386.868 71.02C391.022 71.02 394.802 71.65 398.208 72.91C401.615 74.17 404.578 75.9667 407.098 78.3C409.618 80.5867 411.555 83.27 412.908 86.35C414.262 89.43 414.938 92.7667 414.938 96.36C414.938 99.9533 414.262 103.29 412.908 106.37C411.555 109.45 409.618 112.157 407.098 114.49C404.578 116.777 401.615 118.55 398.208 119.81C394.802 121.07 391.022 121.7 386.868 121.7ZM386.938 111.76C389.458 111.76 391.768 111.387 393.868 110.64C396.015 109.847 397.858 108.75 399.398 107.35C400.938 105.95 402.128 104.317 402.968 102.45C403.855 100.583 404.298 98.5533 404.298 96.36C404.298 94.1667 403.855 92.1367 402.968 90.27C402.128 88.4033 400.938 86.7933 399.398 85.44C397.858 84.04 396.015 82.9433 393.868 82.15C391.722 81.3567 389.412 80.96 386.938 80.96C384.418 80.96 382.085 81.3567 379.938 82.15C377.838 82.9433 375.995 84.0167 374.408 85.37C372.822 86.7233 371.608 88.3567 370.768 90.27C369.975 92.1367 369.578 94.1667 369.578 96.36C369.578 98.5533 369.975 100.607 370.768 102.52C371.608 104.387 372.822 106.02 374.408 107.42C375.995 108.773 377.838 109.847 379.938 110.64C382.085 111.387 384.418 111.76 386.938 111.76ZM430.93 121V72H456.41C459.723 72 462.663 72.6767 465.23 74.03C467.843 75.3367 469.873 77.1567 471.32 79.49C472.766 81.8233 473.49 84.5067 473.49 87.54C473.49 90.5733 472.72 93.3033 471.18 95.73C469.64 98.1567 467.563 100.093 464.95 101.54C462.336 102.94 459.42 103.64 456.2 103.64H441.08V121H430.93ZM463.69 121L448.85 98.88L459.77 97.13L476.01 121.07L463.69 121ZM441.08 95.1H455.29C456.736 95.1 458.02 94.7967 459.14 94.19C460.26 93.5367 461.146 92.6733 461.8 91.6C462.5 90.5267 462.85 89.3133 462.85 87.96C462.85 86.56 462.476 85.3467 461.73 84.32C461.03 83.2933 460.05 82.5 458.79 81.94C457.576 81.38 456.2 81.1 454.66 81.1H441.08V95.1ZM503.199 121V81.45H486.119V72H531.129V81.45H513.699V121H503.199Z" fill="white"/>
</g>
<g filter="url(#filter1_d_1_11)">
<path d="M575.5 120.5L597.397 67.0784L540.184 74.8261L575.5 120.5ZM300.597 7.91016V2.91016H293.933L295.796 9.30837L300.597 7.91016ZM14 121C14 103.397 18.7321 90.456 26.6061 80.8042C34.5346 71.0856 46.0114 64.2591 60.2395 59.6011C88.8979 50.2191 127.229 50.0809 165.603 51.5167C203.436 52.9322 241.557 55.9133 268.11 52.1079C281.344 50.2112 292.907 46.4988 300.085 39.0409C307.698 31.1319 309.376 20.1722 305.397 6.51195L295.796 9.30837C299.145 20.8069 297.207 27.6109 292.88 32.1062C288.119 37.0525 279.42 40.3849 266.691 42.209C241.317 45.8454 204.707 42.9728 165.977 41.5236C127.788 40.0948 87.7241 40.0811 57.1282 50.0975C41.7292 55.1387 28.3641 62.8299 18.8575 74.4829C9.29627 86.2029 4 101.488 4 121L14 121ZM300.597 12.9102C331.183 12.9102 361.756 11.641 390.345 11.1254C419.076 10.6073 445.972 10.843 469.842 13.7828C493.732 16.7251 514.213 22.3358 530.306 32.311C546.255 42.197 558.125 56.5064 564.693 77.4158L574.233 74.4191C566.941 51.2039 553.545 34.95 535.574 23.8113C517.748 12.7617 495.654 6.88629 471.065 3.85783C446.456 0.827024 418.97 0.607604 390.165 1.12706C361.219 1.64907 331.103 2.91016 300.597 2.91016V12.9102Z" fill="white"/>
</g>
<defs>
<filter id="filter0_d_1_11" x="49.66" y="71.02" width="481.469" height="54.68" filterUnits="userSpaceOnUse" color-interpolation-filters="sRGB">
<feFlood flood-opacity="0" result="BackgroundImageFix"/>
<feColorMatrix in="SourceAlpha" type="matrix" values="0 0 0 0 0 0 0 0 0 0 0 0 0 0 0 0 0 0 127 0" result="hardAlpha"/>
<feOffset dy="4"/>
<feComposite in2="hardAlpha" operator="out"/>
<feColorMatrix type="matrix" values="0 0 0 0 0 0 0 0 0 0 0 0 0 0 0 0 0 0 0.3 0"/>
<feBlend mode="normal" in2="BackgroundImageFix" result="effect1_dropShadow_1_11"/>
<feBlend mode="normal" in="SourceGraphic" in2="effect1_dropShadow_1_11" result="shape"/>
</filter>
<filter id="filter1_d_1_11" x="0" y="0.908142" width="601.397" height="128.092" filterUnits="userSpaceOnUse" color-interpolation-filters="sRGB">
<feFlood flood-opacity="0" result="BackgroundImageFix"/>
<feColorMatrix in="SourceAlpha" type="matrix" values="0 0 0 0 0 0 0 0 0 0 0 0 0 0 0 0 0 0 127 0" result="hardAlpha"/>
<feOffset dy="4"/>
<feGaussianBlur stdDeviation="2"/>
<feComposite in2="hardAlpha" operator="out"/>
<feColorMatrix type="matrix" values="0 0 0 0 0 0 0 0 0 0 0 0 0 0 0 0 0 0 0.3 0"/>
<feBlend mode="normal" in2="BackgroundImageFix" result="effect1_dropShadow_1_11"/>
<feBlend mode="normal" in="SourceGraphic" in2="effect1_dropShadow_1_11" result="shape"/>
</filter>
</defs>
</svg>
