<svg width="320" height="36" viewBox="0 0 320 36" fill="none" xmlns="http://www.w3.org/2000/svg">
<g filter="url(#filter0_i_159_67)">
<path d="M0.72168 35.5104V1.24704H7.67352V35.5104H0.72168ZM3.59511 22.1966V15.8824H23.8018V22.1966H3.59511ZM3.96587 7.85496V1.24704H25.7483V7.85496H3.96587ZM36.8395 35.5104V29.0003H44.0694V7.75707H36.8395V1.24704H58.2511V7.75707H51.0212V29.0003H58.2511V35.5104H36.8395ZM79.2556 35.5104V7.85496H67.9473V1.24704H97.7475V7.85496H86.2074V35.5104H79.2556ZM118.939 35.5104L117.086 33.4126L115.655 32.0421L111.074 27.483C110.473 26.8865 109.899 26.2893 109.352 25.6929C108.805 25.0964 108.328 24.509 107.922 23.9308C107.516 23.3525 107.189 22.7931 106.942 22.2526C106.713 21.6932 106.598 21.1428 106.598 20.6023C106.598 19.7259 106.854 18.9054 107.366 18.141C107.878 17.3578 108.611 16.7238 109.564 16.239C110.518 15.7355 111.647 15.4838 112.954 15.4838C114.049 15.4838 115.046 15.6516 115.947 15.9873C116.864 16.3229 117.642 16.7891 118.277 17.3858C118.93 17.9638 119.433 18.6164 119.787 19.3437L116.927 21.5533C116.45 20.6396 115.876 19.987 115.205 19.5954C114.534 19.1851 113.828 18.9801 113.087 18.9801C112.645 18.9801 112.239 19.0453 111.868 19.1758C111.515 19.2877 111.233 19.4742 111.021 19.7353C110.826 19.9963 110.73 20.3133 110.73 20.6862C110.73 21.003 110.835 21.3666 111.047 21.7771C111.276 22.1875 111.568 22.6071 111.921 23.0357C112.274 23.4644 112.645 23.8748 113.034 24.2664C113.422 24.6391 113.775 24.9747 114.093 25.2733L118.436 29.5248L119.76 30.8953L123.998 35.5104H118.939ZM111.577 35.874C109.864 35.874 108.408 35.5852 107.207 35.0069C106.024 34.4286 105.115 33.6643 104.48 32.7134C103.861 31.7435 103.553 30.6995 103.553 29.5807C103.553 28.2941 103.95 27.1103 104.744 26.0285C105.539 24.9286 106.757 24.0517 108.399 23.3993L110.783 25.8607C109.634 26.1593 108.805 26.597 108.293 27.1753C107.799 27.7536 107.552 28.4151 107.552 29.1612C107.552 29.7576 107.693 30.2988 107.975 30.7834C108.275 31.2498 108.743 31.6225 109.379 31.9022C110.015 32.1819 110.844 32.3218 111.868 32.3218C112.539 32.3218 113.228 32.2008 113.934 31.9582C114.64 31.6973 115.293 31.3149 115.894 30.8114C116.494 30.2891 116.98 29.6367 117.35 28.8535C117.721 28.0515 117.924 27.0914 117.959 25.9726H121.72C121.649 27.2592 121.402 28.4339 120.979 29.4968C120.572 30.5408 120.034 31.4638 119.363 32.2658C118.71 33.0679 117.959 33.7392 117.112 34.2797C116.265 34.802 115.373 35.2027 114.437 35.4824C113.501 35.7432 112.548 35.874 111.577 35.874ZM144.42 35.9998C142.133 35.9998 140.032 35.7551 138.116 35.2656C136.2 34.7433 134.47 34.0091 132.926 33.063C131.381 32.1169 130.006 30.9743 128.801 29.6367L132.601 24.0077C134.609 26.1285 136.618 27.6137 138.626 28.4619C140.634 29.3101 142.705 29.7345 144.837 29.7345C145.918 29.7345 146.969 29.5877 147.988 29.294C149.038 29.0003 149.888 28.5759 150.537 28.0214C151.216 27.434 151.557 26.6837 151.557 25.7698C151.557 25.1824 151.387 24.6769 151.047 24.2524C150.707 23.828 150.259 23.4693 149.703 23.1756C149.147 22.8819 148.498 22.6371 147.756 22.4414C147.015 22.2127 146.227 22.0337 145.393 21.9029C144.589 21.74 143.755 21.6092 142.89 21.5113C140.944 21.1848 139.198 20.7445 137.653 20.1898C136.139 19.635 134.841 18.9334 133.76 18.085C132.678 17.204 131.86 16.1923 131.304 15.0503C130.778 13.8755 130.516 12.5376 130.516 11.0366C130.516 9.43758 130.871 7.98551 131.582 6.68022C132.292 5.37493 133.281 4.2655 134.548 3.35179C135.814 2.43807 137.282 1.7528 138.951 1.29598C140.65 0.806508 142.473 0.561768 144.42 0.561768C146.551 0.561768 148.452 0.790215 150.12 1.24704C151.788 1.70386 153.272 2.35654 154.569 3.20494C155.867 4.02076 156.933 4.99971 157.767 6.1418L153.781 10.9876C153.009 10.1392 152.097 9.40499 151.047 8.78497C150.027 8.16494 148.945 7.69183 147.803 7.36549C146.659 7.03915 145.501 6.87601 144.327 6.87601C143.029 6.87601 141.886 7.02285 140.897 7.31654C139.939 7.57757 139.167 7.98551 138.58 8.54023C138.024 9.06236 137.746 9.73127 137.746 10.5471C137.746 11.1997 137.962 11.7708 138.395 12.2602C138.827 12.7497 139.398 13.1576 140.109 13.4839C140.82 13.7776 141.639 14.0387 142.566 14.2671C143.493 14.4629 144.466 14.6424 145.485 14.8055C147.277 15.0992 148.977 15.4745 150.583 15.9313C152.19 16.3556 153.611 16.9429 154.847 17.6934C156.083 18.4114 157.041 19.3577 157.721 20.5324C158.4 21.6743 158.74 23.1105 158.74 24.8398C158.74 27.1564 158.122 29.1472 156.886 30.8114C155.681 32.4756 154.013 33.7643 151.881 34.6783C149.749 35.5593 147.262 35.9998 144.42 35.9998ZM169.106 35.5104V1.24704H186.068C188.077 1.24704 189.9 1.73651 191.537 2.71546C193.175 3.66176 194.473 4.96705 195.43 6.63127C196.419 8.29549 196.913 10.1718 196.913 12.2602C196.913 14.4466 196.403 16.4045 195.384 18.134C194.395 19.8634 193.036 21.2505 191.305 22.2945C189.575 23.3063 187.66 23.8119 185.559 23.8119H176.058V35.5104H169.106ZM175.965 17.204H184.585C185.512 17.204 186.362 16.9919 187.134 16.5676C187.907 16.1434 188.509 15.556 188.942 14.8055C189.405 14.055 189.637 13.2229 189.637 12.3092C189.637 11.4281 189.405 10.6613 188.942 10.0087C188.509 9.32339 187.907 8.80126 187.134 8.44234C186.362 8.05076 185.512 7.85496 184.585 7.85496H175.965V17.204ZM223.98 35.9998C221.292 35.9998 218.821 35.5593 216.565 34.6783C214.31 33.7643 212.332 32.5085 210.633 30.9093C208.964 29.3101 207.683 27.434 206.786 25.2803C205.89 23.1266 205.442 20.7934 205.442 18.2808C205.442 15.7682 205.89 13.435 206.786 11.2813C207.713 9.1276 209.011 7.2513 210.679 5.65232C212.348 4.05335 214.31 2.81336 216.565 1.93231C218.821 1.01859 221.292 0.561768 223.98 0.561768C226.731 0.561768 229.233 1.0023 231.488 1.88336C233.744 2.76441 235.706 4.02076 237.374 5.65232C239.043 7.2513 240.325 9.1276 241.221 11.2813C242.117 13.435 242.565 15.7682 242.565 18.2808C242.565 20.7934 242.117 23.1266 241.221 25.2803C240.325 27.434 239.043 29.3269 237.374 30.9582C235.706 32.5574 233.744 33.7972 231.488 34.6783C229.233 35.5593 226.731 35.9998 223.98 35.9998ZM224.027 29.0493C225.695 29.0493 227.225 28.7885 228.615 28.2661C230.036 27.7116 231.257 26.9445 232.276 25.9656C233.296 24.9866 234.084 23.8447 234.64 22.5392C235.227 21.2337 235.52 19.8145 235.52 18.2808C235.52 16.7471 235.227 15.3277 234.64 14.0224C234.084 12.7171 233.296 11.5913 232.276 10.645C231.257 9.66603 230.036 8.89916 228.615 8.34444C227.194 7.78972 225.665 7.51233 224.027 7.51233C222.358 7.51233 220.814 7.78972 219.392 8.34444C218.002 8.89916 216.782 9.64974 215.731 10.596C214.681 11.5423 213.877 12.6845 213.321 14.0224C212.796 15.3277 212.533 16.7471 212.533 18.2808C212.533 19.8145 212.796 21.2505 213.321 22.5882C213.877 23.8937 214.681 25.0356 215.731 26.0145C216.782 26.9606 218.002 27.7116 219.392 28.2661C220.814 28.7885 222.358 29.0493 224.027 29.0493ZM253.153 35.5104V1.24704H270.023C272.216 1.24704 274.163 1.72022 275.862 2.66652C277.592 3.58023 278.936 4.85287 279.894 6.48443C280.852 8.11599 281.331 9.99237 281.331 12.1134C281.331 14.2344 280.821 16.1434 279.802 17.8403C278.782 19.5372 277.407 20.8911 275.677 21.9029C273.946 22.8819 272.016 23.3714 269.884 23.3714H259.873V35.5104H253.153ZM274.843 35.5104L265.017 20.0429L272.247 18.8192L282.999 35.5593L274.843 35.5104ZM259.873 17.3997H269.281C270.239 17.3997 271.089 17.1877 271.83 16.7634C272.572 16.3066 273.158 15.7029 273.591 14.9524C274.055 14.2019 274.286 13.3534 274.286 12.4071C274.286 11.4281 274.039 10.5797 273.545 9.86182C273.082 9.14389 272.433 8.58918 271.598 8.1976C270.795 7.80602 269.884 7.61022 268.864 7.61022H259.873V17.3997ZM301.001 35.5104V7.85496H289.692V1.24704H319.493V7.85496H307.953V35.5104H301.001Z" fill="white"/>
</g>
<defs>
<filter id="filter0_i_159_67" x="0.72168" y="0.561768" width="318.771" height="39.438" filterUnits="userSpaceOnUse" color-interpolation-filters="sRGB">
<feFlood flood-opacity="0" result="BackgroundImageFix"/>
<feBlend mode="normal" in="SourceGraphic" in2="BackgroundImageFix" result="shape"/>
<feColorMatrix in="SourceAlpha" type="matrix" values="0 0 0 0 0 0 0 0 0 0 0 0 0 0 0 0 0 0 127 0" result="hardAlpha"/>
<feOffset dy="4"/>
<feGaussianBlur stdDeviation="2"/>
<feComposite in2="hardAlpha" operator="arithmetic" k2="-1" k3="1"/>
<feColorMatrix type="matrix" values="0 0 0 0 0 0 0 0 0 0 0 0 0 0 0 0 0 0 0.3 0"/>
<feBlend mode="normal" in2="shape" result="effect1_innerShadow_159_67"/>
</filter>
</defs>
</svg>
