<svg width="337" height="36" viewBox="0 0 337 36" fill="none" xmlns="http://www.w3.org/2000/svg">
<g filter="url(#filter0_i_159_66)">
<path d="M0 34.9542V0.685378H7.34331V34.9542H0ZM3.03524 21.6383V15.3231H24.3798V21.6383H3.03524ZM3.42688 7.29436V0.685378H26.4359V7.29436H3.42688ZM38.1517 34.9542V28.4431H45.7887V7.19645H38.1517V0.685378H60.7691V7.19645H53.132V28.4431H60.7691V34.9542H38.1517ZM82.9564 34.9542V7.29436H71.0112V0.685378H102.49V7.29436H90.2997V34.9542H82.9564ZM124.875 34.9542L122.917 32.8561L121.406 31.4853L116.566 26.9255C115.932 26.3289 115.326 25.7317 114.748 25.1351C114.17 24.5386 113.666 23.9511 113.237 23.3727C112.808 22.7943 112.463 22.2349 112.202 21.6943C111.96 21.1348 111.839 20.5844 111.839 20.0438C111.839 19.1672 112.109 18.3466 112.65 17.582C113.191 16.7987 113.965 16.1646 114.972 15.6797C115.979 15.1762 117.172 14.9244 118.553 14.9244C119.709 14.9244 120.763 15.0923 121.714 15.428C122.683 15.7637 123.504 16.2299 124.175 16.8267C124.865 17.4048 125.397 18.0576 125.77 18.7849L122.749 20.9949C122.245 20.081 121.639 19.4283 120.93 19.0367C120.221 18.6264 119.476 18.4212 118.692 18.4212C118.226 18.4212 117.797 18.4865 117.406 18.6171C117.032 18.7289 116.734 18.9155 116.51 19.1765C116.305 19.4376 116.203 19.7547 116.203 20.1277C116.203 20.4445 116.315 20.8082 116.538 21.2187C116.78 21.6292 117.088 22.0488 117.462 22.4775C117.834 22.9062 118.226 23.3168 118.636 23.7084C119.046 24.0812 119.42 24.4169 119.755 24.7155L124.343 28.9676L125.742 30.3384L130.218 34.9542H124.875ZM117.098 35.3178C115.289 35.3178 113.75 35.029 112.482 34.4506C111.232 33.8723 110.272 33.1079 109.601 32.1567C108.947 31.1867 108.622 30.1426 108.622 29.0236C108.622 27.7367 109.041 26.5527 109.88 25.4708C110.72 24.3707 112.007 23.4937 113.741 22.8412L116.259 25.303C115.046 25.6016 114.17 26.0394 113.629 26.6178C113.107 27.1961 112.846 27.8577 112.846 28.604C112.846 29.2005 112.995 29.7418 113.293 30.2265C113.61 30.693 114.105 31.0657 114.776 31.3455C115.447 31.6252 116.324 31.7651 117.406 31.7651C118.114 31.7651 118.841 31.6441 119.588 31.4014C120.333 31.1405 121.023 30.758 121.658 30.2545C122.291 29.732 122.805 29.0795 123.196 28.2962C123.588 27.4941 123.802 26.5338 123.84 25.4149H127.812C127.737 26.7017 127.476 27.8766 127.029 28.9397C126.599 29.9838 126.031 30.907 125.322 31.7091C124.632 32.5113 123.84 33.1827 122.945 33.7233C122.049 34.2457 121.107 34.6465 120.119 34.9262C119.13 35.1871 118.123 35.3178 117.098 35.3178ZM151.79 35.4437C149.374 35.4437 147.155 35.199 145.132 34.7094C143.108 34.187 141.28 33.4526 139.649 32.5064C138.017 31.5602 136.565 30.4174 135.292 29.0795L139.306 23.4497C141.427 25.5708 143.548 27.0563 145.67 27.9046C147.792 28.7529 149.978 29.1774 152.23 29.1774C153.372 29.1774 154.482 29.0306 155.559 28.7368C156.669 28.4431 157.567 28.0186 158.252 27.464C158.969 26.8765 159.329 26.1261 159.329 25.212C159.329 24.6246 159.149 24.1189 158.79 23.6944C158.431 23.2699 157.958 22.9111 157.371 22.6174C156.783 22.3237 156.098 22.0789 155.315 21.8831C154.531 21.6544 153.699 21.4753 152.818 21.3446C151.969 21.1816 151.088 21.0508 150.174 20.9529C148.118 20.6263 146.274 20.1859 144.642 19.6311C143.043 19.0763 141.672 18.3746 140.53 17.526C139.387 16.6448 138.523 15.6331 137.935 14.4908C137.38 13.3159 137.103 11.9778 137.103 10.4765C137.103 8.87723 137.478 7.42493 138.229 6.11943C138.98 4.81393 140.024 3.70432 141.362 2.79046C142.7 1.87661 144.251 1.19123 146.013 0.734334C147.808 0.244779 149.734 0 151.79 0C154.042 0 156.049 0.228484 157.811 0.685378C159.574 1.14227 161.14 1.79506 162.511 2.6436C163.882 3.45954 165.008 4.43865 165.889 5.58092L161.679 10.4275C160.863 9.57897 159.9 8.84464 158.79 8.22451C157.713 7.60439 156.571 7.1312 155.364 6.80481C154.156 6.47841 152.932 6.31525 151.692 6.31525C150.321 6.31525 149.113 6.46212 148.069 6.75585C147.057 7.01692 146.241 7.42493 145.621 7.97974C145.034 8.50195 144.74 9.17096 144.74 9.98691C144.74 10.6396 144.968 11.2108 145.426 11.7003C145.882 12.1899 146.486 12.5978 147.237 12.9242C147.987 13.218 148.852 13.479 149.832 13.7075C150.811 13.9033 151.839 14.0829 152.916 14.246C154.808 14.5398 156.604 14.9151 158.301 15.372C159.998 15.7963 161.499 16.3838 162.805 17.1344C164.11 17.8524 165.122 18.7989 165.84 19.9738C166.558 21.1159 166.917 22.5524 166.917 24.2819C166.917 26.5989 166.264 28.59 164.959 30.2545C163.686 31.9189 161.924 33.2079 159.672 34.1219C157.42 35.0031 154.792 35.4437 151.79 35.4437ZM177.866 34.9542V0.685378H195.784C197.906 0.685378 199.831 1.17493 201.561 2.15404C203.291 3.10049 204.662 4.40599 205.673 6.07047C206.718 7.73496 207.239 9.61156 207.239 11.7003C207.239 13.887 206.701 15.8453 205.624 17.575C204.58 19.3047 203.144 20.6921 201.316 21.7362C199.488 22.7482 197.465 23.2538 195.245 23.2538H185.21V34.9542H177.866ZM185.112 16.6448H194.217C195.196 16.6448 196.094 16.4327 196.91 16.0084C197.726 15.5841 198.362 14.9967 198.819 14.246C199.309 13.4954 199.553 12.6632 199.553 11.7493C199.553 10.8681 199.309 10.1011 198.819 9.4484C198.362 8.76302 197.726 8.24081 196.91 7.88183C196.094 7.49018 195.196 7.29436 194.217 7.29436H185.112V16.6448ZM235.831 35.4437C232.991 35.4437 230.381 35.0031 227.998 34.1219C225.616 33.2079 223.527 31.9518 221.732 30.3524C219.969 28.7529 218.615 26.8765 217.668 24.7225C216.722 22.5685 216.249 20.2349 216.249 17.7219C216.249 15.2088 216.722 12.8753 217.668 10.7212C218.648 8.5672 220.018 6.6906 221.781 5.09137C223.543 3.49213 225.616 2.25195 227.998 1.37076C230.381 0.456899 232.991 0 235.831 0C238.736 0 241.38 0.440604 243.762 1.3218C246.144 2.203 248.217 3.45954 249.979 5.09137C251.741 6.6906 253.096 8.5672 254.042 10.7212C254.989 12.8753 255.462 15.2088 255.462 17.7219C255.462 20.2349 254.989 22.5685 254.042 24.7225C253.096 26.8765 251.741 28.7697 249.979 30.4013C248.217 32.0008 246.144 33.2407 243.762 34.1219C241.38 35.0031 238.736 35.4437 235.831 35.4437ZM235.88 28.4921C237.642 28.4921 239.258 28.2312 240.726 27.7088C242.228 27.1542 243.517 26.387 244.594 25.4079C245.671 24.4288 246.503 23.2867 247.091 21.981C247.711 20.6753 248.021 19.2558 248.021 17.7219C248.021 16.188 247.711 14.7682 247.091 13.4627C246.503 12.1572 245.671 11.0313 244.594 10.0848C243.517 9.10571 242.228 8.33872 240.726 7.78392C239.226 7.22911 237.61 6.95167 235.88 6.95167C234.117 6.95167 232.486 7.22911 230.984 7.78392C229.516 8.33872 228.227 9.08942 227.117 10.0359C226.008 10.9823 225.159 12.1247 224.571 13.4627C224.017 14.7682 223.739 16.188 223.739 17.7219C223.739 19.2558 224.017 20.6921 224.571 22.0299C225.159 23.3357 226.008 24.4777 227.117 25.4568C228.227 26.4031 229.516 27.1542 230.984 27.7088C232.486 28.2312 234.117 28.4921 235.88 28.4921ZM266.646 34.9542V0.685378H284.466C286.783 0.685378 288.839 1.15864 290.634 2.10508C292.462 3.01894 293.882 4.29178 294.893 5.92361C295.905 7.55543 296.411 9.43211 296.411 11.5535C296.411 13.6749 295.873 15.5841 294.796 17.2813C293.719 18.9784 292.266 20.3326 290.439 21.3446C288.61 22.3237 286.571 22.8132 284.319 22.8132H273.745V34.9542H266.646ZM289.557 34.9542L279.179 19.4843L286.816 18.2604L298.173 35.0031L289.557 34.9542ZM273.745 16.8407H283.683C284.694 16.8407 285.592 16.6286 286.375 16.2043C287.159 15.7474 287.778 15.1435 288.236 14.3929C288.725 13.6423 288.97 12.7937 288.97 11.8472C288.97 10.8681 288.708 10.0196 288.187 9.30153C287.697 8.5835 287.012 8.02869 286.13 7.63705C285.281 7.24541 284.319 7.04958 283.242 7.04958H273.745V16.8407ZM317.188 34.9542V7.29436H305.243V0.685378H336.722V7.29436H324.532V34.9542H317.188Z" fill="white"/>
</g>
<defs>
<filter id="filter0_i_159_66" x="0" y="0" width="336.722" height="39.4438" filterUnits="userSpaceOnUse" color-interpolation-filters="sRGB">
<feFlood flood-opacity="0" result="BackgroundImageFix"/>
<feBlend mode="normal" in="SourceGraphic" in2="BackgroundImageFix" result="shape"/>
<feColorMatrix in="SourceAlpha" type="matrix" values="0 0 0 0 0 0 0 0 0 0 0 0 0 0 0 0 0 0 127 0" result="hardAlpha"/>
<feOffset dy="4"/>
<feGaussianBlur stdDeviation="2"/>
<feComposite in2="hardAlpha" operator="arithmetic" k2="-1" k3="1"/>
<feColorMatrix type="matrix" values="0 0 0 0 0 0 0 0 0 0 0 0 0 0 0 0 0 0 0.3 0"/>
<feBlend mode="normal" in2="shape" result="effect1_innerShadow_159_66"/>
</filter>
</defs>
</svg>
