<svg width="50" height="50" viewBox="0 0 50 50" fill="none" xmlns="http://www.w3.org/2000/svg">
<path d="M36.1251 11.3751C35.6306 11.3751 35.1473 11.5217 34.7362 11.7964C34.325 12.0711 34.0046 12.4616 33.8154 12.9184C33.6262 13.3752 33.5767 13.8779 33.6731 14.3628C33.7696 14.8478 34.0077 15.2932 34.3573 15.6428C34.7069 15.9925 35.1524 16.2306 35.6374 16.327C36.1223 16.4235 36.625 16.374 37.0818 16.1848C37.5386 15.9956 37.9291 15.6751 38.2038 15.264C38.4785 14.8529 38.6251 14.3695 38.6251 13.8751C38.6251 13.212 38.3617 12.5762 37.8929 12.1073C37.424 11.6385 36.7881 11.3751 36.1251 11.3751V11.3751ZM45.7084 16.4167C45.6679 14.6882 45.3442 12.978 44.7501 11.3542C44.2204 9.96494 43.3959 8.70691 42.3334 7.66675C41.3018 6.59889 40.0408 5.77962 38.6459 5.27091C37.0265 4.65875 35.3144 4.3276 33.5834 4.29175C31.3751 4.16675 30.6668 4.16675 25.0001 4.16675C19.3334 4.16675 18.6251 4.16675 16.4167 4.29175C14.6858 4.3276 12.9737 4.65875 11.3542 5.27091C9.96191 5.78477 8.70203 6.60333 7.66675 7.66675C6.59889 8.69837 5.77962 9.95933 5.27091 11.3542C4.65875 12.9737 4.3276 14.6858 4.29175 16.4167C4.16675 18.6251 4.16675 19.3334 4.16675 25.0001C4.16675 30.6668 4.16675 31.3751 4.29175 33.5834C4.3276 35.3144 4.65875 37.0265 5.27091 38.6459C5.77962 40.0408 6.59889 41.3018 7.66675 42.3334C8.70203 43.3968 9.96191 44.2154 11.3542 44.7292C12.9737 45.3414 14.6858 45.6726 16.4167 45.7084C18.6251 45.8334 19.3334 45.8334 25.0001 45.8334C30.6668 45.8334 31.3751 45.8334 33.5834 45.7084C35.3144 45.6726 37.0265 45.3414 38.6459 44.7292C40.0408 44.2205 41.3018 43.4013 42.3334 42.3334C43.4006 41.2971 44.2258 40.038 44.7501 38.6459C45.3442 37.0222 45.6679 35.312 45.7084 33.5834C45.7084 31.3751 45.8334 30.6668 45.8334 25.0001C45.8334 19.3334 45.8334 18.6251 45.7084 16.4167V16.4167ZM41.9584 33.3334C41.9432 34.6559 41.7037 35.9661 41.2501 37.2084C40.9174 38.1151 40.3832 38.9343 39.6876 39.6043C39.0118 40.2928 38.1943 40.826 37.2917 41.1668C36.0495 41.6204 34.7392 41.8599 33.4168 41.8751C31.3334 41.9793 30.5626 42.0001 25.0834 42.0001C19.6042 42.0001 18.8334 42.0001 16.7501 41.8751C15.3769 41.9008 14.0097 41.6894 12.7084 41.2501C11.8455 40.8919 11.0654 40.3601 10.4167 39.6876C9.72527 39.0183 9.19767 38.1984 8.87508 37.2917C8.36645 36.0317 8.08434 34.6916 8.04175 33.3334C8.04175 31.2501 7.91675 30.4793 7.91675 25.0001C7.91675 19.5209 7.91675 18.7501 8.04175 16.6667C8.05109 15.3148 8.29789 13.975 8.77092 12.7084C9.13768 11.8291 9.70063 11.0452 10.4167 10.4167C11.0497 9.70043 11.8319 9.13153 12.7084 8.75008C13.9783 8.29184 15.3167 8.05233 16.6667 8.04175C18.7501 8.04175 19.5209 7.91675 25.0001 7.91675C30.4793 7.91675 31.2501 7.91675 33.3334 8.04175C34.6559 8.05692 35.9661 8.29643 37.2084 8.75008C38.1551 9.10144 39.0049 9.67268 39.6876 10.4167C40.3703 11.0567 40.9038 11.8391 41.2501 12.7084C41.7131 13.977 41.9528 15.3163 41.9584 16.6667C42.0626 18.7501 42.0834 19.5209 42.0834 25.0001C42.0834 30.4793 42.0626 31.2501 41.9584 33.3334ZM25.0001 14.3126C22.8872 14.3167 20.8229 14.947 19.0681 16.1239C17.3133 17.3007 15.9467 18.9713 15.141 20.9246C14.3353 22.8778 14.1266 25.0261 14.5413 27.0979C14.956 29.1697 15.9756 31.072 17.4711 32.5646C18.9666 34.0572 20.8709 35.073 22.9435 35.4837C25.0161 35.8944 27.164 35.6816 29.1156 34.872C31.0673 34.0625 32.7352 32.6927 33.9087 30.9356C35.0821 29.1785 35.7084 27.113 35.7084 25.0001C35.7112 23.5941 35.4359 22.2013 34.8985 20.9021C34.3611 19.6028 33.5721 18.4226 32.5769 17.4294C31.5817 16.4361 30.4 15.6494 29.0997 15.1145C27.7993 14.5796 26.4061 14.3071 25.0001 14.3126V14.3126ZM25.0001 31.9376C23.628 31.9376 22.2867 31.5307 21.1458 30.7684C20.0049 30.0061 19.1158 28.9226 18.5907 27.6549C18.0656 26.3873 17.9282 24.9924 18.1959 23.6466C18.4636 22.3009 19.1243 21.0648 20.0945 20.0945C21.0648 19.1243 22.3009 18.4636 23.6466 18.1959C24.9924 17.9282 26.3873 18.0656 27.6549 18.5907C28.9226 19.1158 30.0061 20.0049 30.7684 21.1458C31.5307 22.2867 31.9376 23.628 31.9376 25.0001C31.9376 25.9111 31.7581 26.8133 31.4095 27.6549C31.0609 28.4966 30.5498 29.2614 29.9056 29.9056C29.2614 30.5498 28.4966 31.0609 27.6549 31.4095C26.8133 31.7581 25.9111 31.9376 25.0001 31.9376V31.9376Z" fill="white"/>
</svg>
