<svg width="50" height="50" viewBox="0 0 50 50" fill="none" xmlns="http://www.w3.org/2000/svg">
<path d="M24.9881 4.16675C20.8677 4.16675 16.8398 5.3886 13.4137 7.6778C9.98772 9.96699 7.31746 13.2207 5.74064 17.0275C4.16381 20.8343 3.75124 25.0232 4.5551 29.0645C5.35896 33.1057 7.34314 36.8179 10.2567 39.7315C13.1703 42.6451 16.8825 44.6292 20.9237 45.4331C24.965 46.237 29.1539 45.8244 32.9607 44.2476C36.7675 42.6707 40.0212 40.0005 42.3104 36.5745C44.5996 33.1484 45.8215 29.1205 45.8215 25.0001C45.8217 22.2641 45.283 19.555 44.2361 17.0272C43.1892 14.4995 41.6546 12.2028 39.72 10.2682C37.7854 8.33358 35.4887 6.79902 32.961 5.75213C30.4333 4.70524 27.7241 4.16652 24.9881 4.16675V4.16675ZM31.6121 35.7344C31.5341 35.9288 31.4155 36.1043 31.2641 36.2492C31.1128 36.394 30.9322 36.5048 30.7345 36.5742C30.5368 36.6435 30.3266 36.6698 30.1179 36.6513C29.9093 36.6327 29.707 36.5698 29.5246 36.4667L23.869 32.0721L20.2392 35.4209C20.155 35.4831 20.0565 35.5232 19.9527 35.5374C19.8489 35.5515 19.7433 35.5394 19.6455 35.502L20.3413 29.2761L20.3636 29.2937L20.3778 29.1708C20.3778 29.1708 30.5549 19.9052 30.9695 19.5104C31.3892 19.1167 31.2507 19.0312 31.2507 19.0312C31.2746 18.551 30.4975 19.0312 30.4975 19.0312L17.0131 27.7063L11.3975 25.7938C11.3975 25.7938 10.535 25.4845 10.4538 24.8042C10.3684 24.1292 11.4256 23.7626 11.4256 23.7626L33.7527 14.8928C33.7527 14.8928 35.5881 14.075 35.5881 15.4292L31.6121 35.7344Z" fill="white"/>
</svg>
