<svg width="50" height="50" viewBox="0 0 50 50" fill="none" xmlns="http://www.w3.org/2000/svg">
<path d="M45.8334 12.0833C44.2675 12.7626 42.6114 13.2117 40.9167 13.4166C42.7046 12.3485 44.0444 10.6682 44.6876 8.68745C43.0075 9.68758 41.1683 10.3922 39.2501 10.7708C37.9679 9.38031 36.2604 8.45473 34.3955 8.13922C32.5306 7.82371 30.6137 8.13611 28.9455 9.02743C27.2772 9.91874 25.952 11.3386 25.1777 13.0642C24.4033 14.7898 24.2236 16.7237 24.6667 18.5624C21.2697 18.3906 17.9468 17.5061 14.9139 15.9663C11.8811 14.4266 9.20601 12.266 7.06258 9.62495C6.31078 10.9378 5.91575 12.4246 5.91675 13.9374C5.91408 15.3424 6.25887 16.7262 6.9204 17.9657C7.58194 19.2052 8.5397 20.2618 9.70841 21.0416C8.35003 21.0047 7.02068 20.6402 5.83341 19.9791V20.0833C5.8436 22.0518 6.5334 23.9564 7.78615 25.4749C9.0389 26.9934 10.7777 28.0325 12.7084 28.4166C11.9652 28.6428 11.1936 28.762 10.4167 28.7708C9.87902 28.7645 9.34263 28.7157 8.81258 28.6249C9.36239 30.3183 10.4264 31.7982 11.8565 32.8586C13.2866 33.9191 15.0117 34.5073 16.7917 34.5416C13.7859 36.9068 10.0748 38.1976 6.25008 38.2083C5.5537 38.2106 4.85786 38.1688 4.16675 38.0833C8.07181 40.6047 12.6226 41.9431 17.2709 41.9374C20.4786 41.9708 23.6608 41.3646 26.6316 40.1543C29.6024 38.944 32.3022 37.1539 34.5734 34.8885C36.8446 32.6231 38.6417 29.9278 39.8596 26.9602C41.0775 23.9925 41.6918 20.8119 41.6668 17.6041C41.6668 17.2499 41.6668 16.8749 41.6668 16.4999C43.3015 15.2808 44.7115 13.7863 45.8334 12.0833V12.0833Z" fill="white"/>
</svg>
